# xmcd
#
# Track frame offsets: 
#        150
#        13200
#        20362
#        33325
#        41225
#        56775
#        70250
#        81000
#        95000
#        109587
#        119262
#        130925
#        149600
#        156650
#        165775
#        180037
#        192562
#        201312
#        212512
#        217125
#        233387
#
# Disc length: 3434 seconds
#
# Revision: 3
# Processed by: cddbd v1.5.2PL0 Copyright (c) Steve Scherf et al.
# Submitted via: ExactAudioCopy v0.95b4
#
DISCID=2c0d6815
DTITLE=Rostok Vampires - Transylvanian Disease
DYEAR=1989
DGENRE=Punk
TTITLE0=No friends
TTITLE1=Shoot dead
TTITLE2=Better never (cross my way)
TTITLE3=No more problems
TTITLE4=Tragic fate
TTITLE5=Last kiss
TTITLE6=Take em back
TTITLE7=Wish you were dead
TTITLE8=Transylvanian disease
TTITLE9=Jim go home
TTITLE10=Faith
TTITLE11=Ignorance
TTITLE12=4/30
TTITLE13=Gun
TTITLE14=Force yourself
TTITLE15=Wake up and die
TTITLE16=Human minds
TTITLE17=Learn
TTITLE18=I don´t care
TTITLE19=Pay the price
TTITLE20=Garbage days
EXTD=
EXTT0=
EXTT1=
EXTT2=
EXTT3=
EXTT4=
EXTT5=
EXTT6=
EXTT7=
EXTT8=
EXTT9=
EXTT10=
EXTT11=
EXTT12=
EXTT13=
EXTT14=
EXTT15=
EXTT16=
EXTT17=
EXTT18=
EXTT19=
EXTT20=
PLAYORDER=
